<svg width="68" height="66" viewBox="0 0 68 66" fill="none" xmlns="http://www.w3.org/2000/svg">
<rect x="0.791016" width="55.1942" height="56" rx="27.5971" fill="#FF7E4A"/>
<path d="M21.209 29.4301L40.7086 40.7146L60.0757 29.4963M40.7086 60.7221V40.6926" stroke="#222222" stroke-width="2" stroke-linecap="round" stroke-linejoin="round"/>
<path d="M61.9305 41.3329V33.2504C61.9305 30.2029 59.7442 26.4929 57.0722 25.0133L45.2797 18.4766C42.7622 17.0633 38.6547 17.0633 36.1372 18.4766L24.3447 25.0133C21.6726 26.4929 19.4863 30.2029 19.4863 33.2504V45.7495C19.4863 48.797 21.6726 52.507 24.3447 53.9866L36.1372 60.5233C37.3959 61.23 39.0522 61.5833 40.7084 61.5833C42.3647 61.5833 44.0209 61.23 45.2797 60.5233" stroke="#222222" stroke-width="2" stroke-linecap="round" stroke-linejoin="round"/>
<path d="M65.0003 61.5833L62.792 59.375M56.6087 60.2583C58.4829 60.2583 60.2803 59.5138 61.6055 58.1886C62.9308 56.8633 63.6753 55.0659 63.6753 53.1917C63.6753 51.3175 62.9308 49.52 61.6055 48.1948C60.2803 46.8695 58.4829 46.125 56.6087 46.125C54.7345 46.125 52.937 46.8695 51.6118 48.1948C50.2865 49.52 49.542 51.3175 49.542 53.1917C49.542 55.0659 50.2865 56.8633 51.6118 58.1886C52.937 59.5138 54.7345 60.2583 56.6087 60.2583Z" stroke="#222222" stroke-width="2" stroke-linecap="round" stroke-linejoin="round"/>
</svg>
