<svg width="66" height="66" viewBox="0 0 66 66" fill="none" xmlns="http://www.w3.org/2000/svg">
<rect width="56" height="56" rx="28" fill="#FF7E4A"/>
<path d="M20.0005 29.4301L39.5001 40.7146L58.8672 29.4963M39.5001 60.7221V40.6926" stroke="#222222" stroke-width="2" stroke-linecap="round" stroke-linejoin="round"/>
<path d="M60.722 33.2504V45.7495C60.722 45.86 60.722 45.9483 60.6999 46.0587C59.1541 44.7116 57.1666 43.9166 54.9583 43.9166C52.8824 43.9166 50.9612 44.6454 49.4374 45.86C48.4008 46.6837 47.5643 47.7316 46.9906 48.9249C46.4169 50.1182 46.1209 51.4259 46.1249 52.75C46.1249 54.4062 46.5887 55.9741 47.4057 57.2991C47.6045 57.6525 47.8474 57.9837 48.1124 58.2929L44.0712 60.5233C41.5537 61.9366 37.4462 61.9366 34.9287 60.5233L23.1362 53.9866C20.4641 52.507 18.2778 48.797 18.2778 45.7495V33.2504C18.2778 30.2029 20.4641 26.4929 23.1362 25.0133L34.9287 18.4766C37.4462 17.0633 41.5537 17.0633 44.0712 18.4766L55.8637 25.0133C58.5358 26.4929 60.722 30.2029 60.722 33.2504Z" stroke="#222222" stroke-width="2" stroke-linecap="round" stroke-linejoin="round"/>
<path d="M63.7917 52.75C63.7917 55.4 62.6212 57.7629 60.7883 59.375C59.178 60.7952 57.1055 61.5803 54.9583 61.5833C50.0779 61.5833 46.125 57.6304 46.125 52.75C46.125 49.9675 47.4058 47.4721 49.4375 45.86C50.736 44.8193 52.3021 44.1666 53.9554 43.9772C55.6087 43.7878 57.2818 44.0694 58.782 44.7895C60.2823 45.5096 61.5485 46.6389 62.4348 48.0473C63.3211 49.4557 63.7915 51.0859 63.7917 52.75Z" stroke="#222222" stroke-width="2" stroke-miterlimit="10" stroke-linecap="round" stroke-linejoin="round"/>
<path d="M55.5104 49.9896V53.3021L52.75 54.9584" stroke="#222222" stroke-width="2" stroke-miterlimit="10" stroke-linecap="round" stroke-linejoin="round"/>
</svg>
