<svg width="68" height="66" viewBox="0 0 68 66" fill="none" xmlns="http://www.w3.org/2000/svg">
<rect x="0.856445" width="55.8657" height="56" rx="27.9329" fill="#FF7E4A"/>
<path d="M64.9358 52.5513C64.98 54.2075 64.5383 55.7755 63.7433 57.1225C63.3016 57.9175 62.7054 58.6463 62.0429 59.2425C60.5191 60.6559 58.5096 61.5171 56.2791 61.5834C53.055 61.6496 50.2062 59.9934 48.6383 57.4538C47.7991 56.1509 47.2912 54.583 47.2691 52.9267C47.2029 50.1442 48.4396 47.6267 50.4271 45.9705C51.9287 44.7338 53.8279 43.9609 55.9037 43.9167C57.0638 43.8903 58.2177 44.0928 59.2996 44.5124C60.3814 44.9321 61.3699 45.5609 62.2087 46.3627C63.0474 47.1646 63.72 48.1238 64.1879 49.1857C64.6559 50.2476 64.91 51.3912 64.9358 52.5513Z" stroke="#222222" stroke-width="2" stroke-miterlimit="10" stroke-linecap="round" stroke-linejoin="round"/>
<path d="M52.6575 52.8163L54.8879 54.9363L59.5033 50.4755M21.1445 29.4301L40.6441 40.7146L60.0112 29.4963M40.6441 60.7221V40.6926" stroke="#222222" stroke-width="2" stroke-linecap="round" stroke-linejoin="round"/>
<path d="M61.866 33.2504V45.7495C61.866 45.86 61.866 45.9483 61.844 46.0587C60.2981 44.7116 58.3106 43.9166 56.1023 43.9166C54.0265 43.9166 52.1052 44.6454 50.5815 45.86C49.5449 46.6837 48.7083 47.7316 48.1346 48.9249C47.5609 50.1182 47.265 51.4259 47.269 52.75C47.269 54.4062 47.7327 55.9741 48.5498 57.2991C48.7485 57.6525 48.9915 57.9837 49.2565 58.2929L45.2152 60.5233C42.6977 61.9366 38.5902 61.9366 36.0727 60.5233L24.2802 53.9866C21.6081 52.507 19.4219 48.797 19.4219 45.7495V33.2504C19.4219 30.2029 21.6081 26.4929 24.2802 25.0133L36.0727 18.4766C38.5902 17.0633 42.6977 17.0633 45.2152 18.4766L57.0077 25.0133C59.6798 26.4929 61.866 30.2029 61.866 33.2504Z" stroke="#222222" stroke-width="2" stroke-linecap="round" stroke-linejoin="round"/>
</svg>
