<svg width="83" height="43" viewBox="0 0 83 43" fill="none" xmlns="http://www.w3.org/2000/svg">
<path d="M1.65655 42.2316C-1.16974 33.1511 0.369084 23.7259 5.93449 16.0294C11.4999 8.33283 20.636 2.99545 31.333 1.19137C42.0299 -0.612713 53.4115 1.26429 62.9739 6.40947C72.5363 11.5546 79.4962 19.5465 82.3225 28.627L62.5893 31.9551C61.1458 27.3173 57.5911 23.2355 52.7071 20.6076C47.8232 17.9798 42.0102 17.0211 36.5468 17.9425C31.0834 18.8639 26.4172 21.59 23.5747 25.5209C20.7322 29.4519 19.9462 34.2657 21.3898 38.9035L1.65655 42.2316Z" fill="url(#paint0_linear_97_1280)" fill-opacity="0.1"/>
<defs>
<linearGradient id="paint0_linear_97_1280" x1="23.2285" y1="-7.32603" x2="37.5543" y2="31.2693" gradientUnits="userSpaceOnUse">
<stop stop-color="white"/>
<stop offset="1" stop-color="white" stop-opacity="0"/>
</linearGradient>
</defs>
</svg>
