<svg width="139" height="168" viewBox="0 0 139 168" fill="none" xmlns="http://www.w3.org/2000/svg">
<path d="M-47.2157 4.42719C-10.6731 -3.14536 28.7828 1.12341 62.472 16.2944C96.1613 31.4654 121.324 56.296 132.425 85.3236C143.526 114.351 139.656 145.198 121.667 171.078C103.677 196.959 73.0407 215.752 36.4981 223.325L13.8328 164.059C30.5879 160.587 44.6347 151.97 52.8831 140.104C61.1316 128.237 62.9061 114.094 57.8161 100.785C52.7262 87.4752 41.1888 76.0902 25.7421 69.1342C10.2953 62.1782 -7.79544 60.2209 -24.5505 63.693L-47.2157 4.42719Z" fill="url(#paint0_linear_97_1279)" fill-opacity="0.1"/>
<defs>
<linearGradient id="paint0_linear_97_1279" x1="164.842" y1="63.4313" x2="42.1917" y2="148.082" gradientUnits="userSpaceOnUse">
<stop stop-color="white"/>
<stop offset="1" stop-color="white" stop-opacity="0"/>
</linearGradient>
</defs>
</svg>
