<svg width="192" height="212" viewBox="0 0 192 212" fill="none" xmlns="http://www.w3.org/2000/svg">
<path d="M268.267 194.615C226.489 211.904 177.217 216.432 131.29 207.204C85.3632 197.975 46.5437 175.745 23.3713 145.404C0.198972 115.063 -5.4281 79.0964 7.72798 45.4168C20.8841 11.7373 51.7457 -16.8967 93.5236 -34.1859L131.732 15.8429C108.224 25.5713 90.859 41.6833 83.4562 60.6343C76.0534 79.5854 79.2197 99.8232 92.2585 116.896C105.297 133.968 127.14 146.477 152.983 151.67C178.825 156.863 206.55 154.315 230.058 144.586L268.267 194.615Z" fill="url(#paint0_linear_97_1278)" fill-opacity="0.1"/>
<defs>
<linearGradient id="paint0_linear_97_1278" x1="-8.61221" y1="177.981" x2="102.076" y2="44.5915" gradientUnits="userSpaceOnUse">
<stop stop-color="white"/>
<stop offset="1" stop-color="white" stop-opacity="0"/>
</linearGradient>
</defs>
</svg>
