<svg width="186" height="153" viewBox="0 0 186 153" fill="none" xmlns="http://www.w3.org/2000/svg">
<path d="M31.6751 46.976L28.4935 48.3329C28.2294 48.0494 27.9041 47.8064 27.5175 47.6037C27.1377 47.3989 26.7051 47.2719 26.2197 47.2228C25.7343 47.1736 25.2061 47.2355 24.6353 47.4086C23.8673 47.6413 23.3045 47.99 22.9468 48.4547C22.5959 48.9173 22.5557 49.3911 22.8261 49.8762C23.0457 50.2967 23.3964 50.5866 23.8781 50.746C24.3667 50.9032 25.0541 50.9457 25.9405 50.8733L28.8953 50.5884C30.5357 50.4329 31.8884 50.5645 32.9535 50.9832C34.0254 51.3998 34.8436 52.1224 35.408 53.1509C35.8912 54.0585 36.035 54.9455 35.8393 55.8118C35.647 56.6698 35.1527 57.4448 34.3564 58.1369C33.5601 58.829 32.5095 59.3728 31.2047 59.7683C29.2882 60.3492 27.5461 60.4483 25.9784 60.0656C24.4073 59.6767 23.1514 58.8541 22.2106 57.5981L25.6368 56.1888C26.1514 56.7889 26.7633 57.1742 27.4725 57.3445C28.1817 57.5149 28.961 57.4713 29.8105 57.2138C30.6872 56.9481 31.3011 56.5694 31.652 56.0777C32.0098 55.5839 32.0569 55.0935 31.7933 54.6063C31.5702 54.1941 31.2127 53.9063 30.7208 53.7428C30.2357 53.5772 29.5941 53.5318 28.796 53.6064L25.8463 53.9007C24.1889 54.0687 22.8158 53.9214 21.7271 53.459C20.6349 52.9903 19.8084 52.2303 19.2474 51.179C18.7607 50.2942 18.6066 49.4467 18.7853 48.6365C18.9673 47.8179 19.4377 47.0865 20.1965 46.4421C20.9587 45.7894 21.9651 45.2736 23.2156 44.8946C25.0505 44.3384 26.689 44.2598 28.131 44.6587C29.5799 45.0557 30.7612 45.8281 31.6751 46.976Z" fill="#FF7E4A"/>
<path d="M43.5248 55.288L39.1404 39.5249L42.9551 38.9613L47.3395 54.7245L43.5248 55.288ZM40.436 37.0043C39.8319 37.0936 39.2578 36.9754 38.7138 36.6498C38.1678 36.3173 37.8178 35.874 37.6637 35.3198C37.5076 34.7588 37.5931 34.2511 37.9202 33.7968C38.2454 33.3356 38.7101 33.0604 39.3142 32.9712C39.9254 32.8809 40.5005 33.0025 41.0394 33.336C41.5834 33.6616 41.9334 34.1049 42.0895 34.666C42.2436 35.2201 42.1581 35.7278 41.8329 36.189C41.5128 36.6422 41.0472 36.914 40.436 37.0043Z" fill="#FF7E4A"/>
<path d="M55.8138 43.3719L56.0149 52.9566L52.1591 52.9991L51.8159 36.6412L55.5013 36.6006L55.5596 39.3802L55.7514 39.378C56.1085 38.458 56.6933 37.7237 57.5056 37.175C58.3251 36.6263 59.3456 36.3452 60.5669 36.3318C61.696 36.3193 62.6845 36.5499 63.5326 37.0235C64.3877 37.497 65.0556 38.1891 65.5364 39.0999C66.0243 40.0106 66.2784 41.1192 66.2987 42.4256L66.5172 52.841L62.6614 52.8835L62.4554 43.0644C62.4325 41.9711 62.1305 41.1187 61.5494 40.5073C60.9755 39.8957 60.1915 39.5955 59.1974 39.6064C58.5228 39.6138 57.9259 39.7695 57.4066 40.0735C56.8944 40.3703 56.4949 40.7972 56.2083 41.3543C55.9288 41.9113 55.7973 42.5838 55.8138 43.3719Z" fill="#FF7E4A"/>
<path d="M77.9594 56.0423C76.3391 55.8369 75.0285 55.3111 74.0277 54.4649C73.0339 53.6196 72.366 52.5414 72.0238 51.2304C71.6903 49.9134 71.71 48.4488 72.0828 46.8367C72.4573 45.2178 73.1048 43.8292 74.0252 42.6712C74.9473 41.5062 76.0661 40.651 77.3815 40.1057C78.7055 39.5543 80.1601 39.379 81.7452 39.58C83.0626 39.7471 84.1733 40.1336 85.0774 40.7396C85.9901 41.3396 86.6494 42.1104 87.0552 43.0521C87.4626 43.9868 87.5758 45.0338 87.3947 46.193L83.7384 45.7294C83.7681 44.9427 83.5638 44.2581 83.1257 43.6755C82.6962 43.0869 82.02 42.7341 81.0971 42.6171C80.3151 42.518 79.5803 42.6384 78.8925 42.9785C78.2063 43.3117 77.6088 43.8413 77.1001 44.5673C76.5984 45.2942 76.2235 46.1938 75.9755 47.2662C75.7242 48.3524 75.6702 49.307 75.8135 50.1299C75.9583 50.9459 76.2743 51.602 76.7614 52.0982C77.2572 52.5883 77.9031 52.8839 78.6992 52.9848C79.2628 53.0563 79.7905 53.0164 80.2824 52.8651C80.7828 52.7078 81.231 52.4477 81.6267 52.0848C82.0224 51.7219 82.3431 51.2605 82.5886 50.7005L86.245 51.1641C85.8925 52.2803 85.3231 53.2371 84.5368 54.0348C83.752 54.8255 82.7991 55.4026 81.6781 55.7661C80.5586 56.1226 79.3191 56.2147 77.9594 56.0423Z" fill="#FF7E4A"/>
<path d="M94.5478 61.2964C92.9671 60.8577 91.7528 60.1732 90.9048 59.2427C90.0669 58.3078 89.618 57.1913 89.5583 55.8931C89.5016 54.5886 89.8519 53.1689 90.6091 51.6341C91.3537 50.1248 92.3151 48.8856 93.4933 47.9165C94.6816 46.943 95.9904 46.2926 97.42 45.9653C98.8527 45.6316 100.322 45.6737 101.827 46.0915C102.799 46.3612 103.643 46.7621 104.361 47.2944C105.089 47.8222 105.635 48.4807 106 49.2699C106.373 50.061 106.519 50.9778 106.441 52.0204C106.365 53.0565 106.01 54.2178 105.375 55.5043L104.852 56.5647L91.9299 52.9781L93.0797 50.6473L102.441 53.2453C102.76 52.581 102.897 51.9492 102.851 51.3498C102.807 50.744 102.589 50.2164 102.196 49.7671C101.81 49.3196 101.261 48.9972 100.549 48.7996C99.7899 48.5888 99.0379 48.5756 98.2935 48.76C97.5522 48.938 96.884 49.2594 96.2891 49.7242C95.7041 50.1846 95.2464 50.7418 94.916 51.3958L93.9122 53.4306C93.4912 54.284 93.2975 55.0629 93.3312 55.7673C93.368 56.4654 93.6074 57.0604 94.0493 57.5523C94.4944 58.0378 95.1206 58.3927 95.9281 58.6168C96.4687 58.7668 96.9925 58.8325 97.4995 58.814C98.0097 58.789 98.4947 58.6811 98.9546 58.4901C99.4144 58.2992 99.8286 58.0195 100.197 57.6511L103.487 58.977C102.847 59.7696 102.062 60.3989 101.132 60.8648C100.212 61.3263 99.1902 61.6002 98.0662 61.6865C96.9454 61.7664 95.7726 61.6364 94.5478 61.2964Z" fill="#FF7E4A"/>
<path d="M127.888 61.3694L111.056 75.2478L107.734 73.1067L121.599 61.6747L121.492 61.6054L114.688 60.9146L117.483 58.6106L124.727 59.3322L127.888 61.3694Z" fill="#FF7E4A"/>
<path d="M134.817 71.6015C135.57 72.3219 136.148 73.1111 136.551 73.9692C136.966 74.8286 137.112 75.7328 136.988 76.6818C136.87 77.6273 136.396 78.5967 135.566 79.59C134.737 80.5833 133.46 81.5746 131.735 82.5641C130.114 83.5019 128.516 84.1994 126.94 84.6564C125.376 85.1149 123.883 85.3407 122.46 85.334C121.037 85.3273 119.712 85.0956 118.486 84.6389C117.26 84.1823 116.17 83.5028 115.215 82.6007C114.213 81.6546 113.56 80.6816 113.253 79.6815C112.952 78.6863 112.971 77.7312 113.309 76.8161C113.647 75.901 114.286 75.0918 115.224 74.3887L118.051 77.0586C117.444 77.6263 117.141 78.247 117.141 78.9208C117.153 79.596 117.499 80.2554 118.181 80.8991C119.28 81.9378 120.697 82.4107 122.43 82.3177C124.163 82.2248 126.043 81.597 128.069 80.4344L127.961 80.3319C127.166 80.404 126.37 80.3629 125.573 80.2087C124.783 80.0509 124.027 79.7908 123.306 79.4281C122.591 79.0704 121.95 78.6233 121.382 78.0869C120.452 77.2091 119.881 76.2671 119.667 75.261C119.459 74.2598 119.6 73.2893 120.09 72.3496C120.586 71.4147 121.425 70.6039 122.609 69.917C123.841 69.2102 125.184 68.8002 126.638 68.687C128.104 68.5751 129.549 68.7613 130.972 69.2457C132.402 69.7266 133.684 70.5118 134.817 71.6015ZM132.053 73.199C131.496 72.6724 130.829 72.2905 130.054 72.0536C129.289 71.818 128.501 71.7372 127.689 71.8115C126.887 71.887 126.148 72.1192 125.47 72.5079C124.804 72.898 124.321 73.3673 124.02 73.9159C123.725 74.4693 123.634 75.0428 123.748 75.6361C123.866 76.2344 124.207 76.7993 124.769 77.3309C125.187 77.7259 125.673 78.0393 126.225 78.2711C126.777 78.5029 127.357 78.6484 127.964 78.7076C128.583 78.7682 129.186 78.7437 129.773 78.6342C130.365 78.5296 130.902 78.3353 131.383 78.0512C132.03 77.6802 132.498 77.2155 132.788 76.6572C133.084 76.1037 133.176 75.5219 133.064 74.9116C132.958 74.3063 132.621 73.7354 132.053 73.199Z" fill="#FF7E4A"/>
<path d="M145.793 89.583C146.401 90.4286 146.827 91.3124 147.069 92.2343C147.321 93.1595 147.302 94.0825 147.011 95.0034C146.726 95.9219 146.088 96.8025 145.098 97.6451C144.107 98.4878 142.678 99.2511 140.811 99.935C139.055 100.586 137.364 101.001 135.739 101.183C134.124 101.367 132.62 101.333 131.227 101.08C129.834 100.827 128.577 100.367 127.458 99.7015C126.338 99.0357 125.391 98.1722 124.616 97.1111C123.804 95.9982 123.338 94.9188 123.216 93.8728C123.099 92.8324 123.288 91.8872 123.783 91.0371C124.278 90.1869 125.049 89.494 126.094 88.9583L128.386 92.0988C127.69 92.5574 127.282 93.1213 127.162 93.7905C127.053 94.463 127.274 95.1778 127.827 95.935C128.719 97.1568 130.022 97.8715 131.737 98.0793C133.452 98.2871 135.407 97.9892 137.6 97.1856L137.512 97.0651C136.721 96.999 135.948 96.8204 135.195 96.5293C134.448 96.2358 133.754 95.8466 133.113 95.3617C132.476 94.8827 131.927 94.3276 131.467 93.6966C130.713 92.6641 130.322 91.6299 130.292 90.5938C130.267 89.5635 130.579 88.6242 131.227 87.776C131.88 86.9335 132.848 86.2737 134.131 85.7965C135.464 85.308 136.854 85.1334 138.299 85.2728C139.755 85.4154 141.138 85.8505 142.446 86.578C143.761 87.303 144.877 88.3047 145.793 89.583ZM142.798 90.6907C142.346 90.0712 141.761 89.5767 141.044 89.2071C140.337 88.8408 139.579 88.6242 138.769 88.5572C137.971 88.4935 137.205 88.596 136.471 88.8647C135.749 89.1367 135.191 89.519 134.799 90.0118C134.41 90.5102 134.218 91.0639 134.223 91.6727C134.233 92.2873 134.465 92.9072 134.922 93.5325C135.261 93.9971 135.68 94.3923 136.18 94.7181C136.68 95.0439 137.222 95.2888 137.806 95.4527C138.401 95.62 138.996 95.7001 139.591 95.693C140.19 95.6916 140.751 95.5916 141.274 95.3929C141.974 95.1365 142.516 94.7561 142.9 94.2519C143.288 93.7535 143.483 93.1916 143.483 92.5664C143.487 91.9469 143.259 91.3217 142.798 90.6907Z" fill="#FF7E4A"/>
<path d="M127.036 108.313L129.838 107.764L140.307 113.211C141.329 113.728 142.22 114.151 142.981 114.48C143.741 114.809 144.433 115.032 145.058 115.149C145.682 115.266 146.29 115.266 146.882 115.15C147.558 115.018 148.071 114.763 148.421 114.385C148.777 114.006 148.973 113.543 149.008 112.995C149.043 112.447 148.914 111.857 148.622 111.226C148.321 110.575 147.91 110.033 147.391 109.601C146.878 109.167 146.294 108.867 145.639 108.7C144.987 108.539 144.295 108.53 143.564 108.673L141.983 105.261C143.342 104.996 144.657 105.051 145.926 105.428C147.195 105.805 148.338 106.443 149.354 107.34C150.373 108.244 151.185 109.35 151.791 110.658C152.406 111.986 152.678 113.205 152.607 114.315C152.535 115.425 152.161 116.349 151.484 117.086C150.81 117.829 149.873 118.318 148.675 118.552C147.873 118.709 147.02 118.722 146.115 118.589C145.21 118.457 144.122 118.126 142.85 117.594C141.581 117.07 139.98 116.297 138.048 115.277L132.715 112.599L132.569 112.627L136.562 121.249L133.321 121.883L127.036 108.313Z" fill="#FF7E4A"/>
</svg>
