<svg width="107" height="77" viewBox="0 0 107 77" fill="none" xmlns="http://www.w3.org/2000/svg">
<g clip-path="url(#clip0_132_659)">
<path d="M87.4453 67.1556L83.444 69.2561C82.7583 69.616 81.9154 69.6751 81.0977 69.3461L85.099 67.2456C85.9139 67.5746 86.7569 67.5156 87.4453 67.1556Z" fill="#B22200"/>
<mask id="mask0_132_659" style="mask-type:luminance" maskUnits="userSpaceOnUse" x="81" y="67" width="7" height="3">
<path d="M87.4453 67.1556L83.444 69.2561C82.7583 69.616 81.9154 69.6751 81.0977 69.3461L85.099 67.2456C85.9139 67.5746 86.7569 67.5156 87.4453 67.1556Z" fill="white"/>
</mask>
<g mask="url(#mask0_132_659)">
<path d="M87.4453 67.1556L83.444 69.2561C82.7583 69.616 81.9154 69.6751 81.0977 69.3461L85.099 67.2456C85.9139 67.5746 86.7569 67.5156 87.4453 67.1556Z" fill="#B22200"/>
</g>
<path d="M41 30.3034L36.9987 32.4039C37.7152 32.0271 38.2828 31.3663 38.5469 30.4946C39.1033 28.6613 38.1058 26.5889 36.3158 25.8663C35.3773 25.4867 34.4107 25.5542 33.6211 25.9675L37.6225 23.8671C38.4121 23.4537 39.3815 23.3862 40.3172 23.7658C42.1043 24.4885 43.1047 26.5608 42.5483 28.3942C42.2842 29.2658 41.7166 29.9266 41 30.3034Z" fill="#B22200"/>
<mask id="mask1_132_659" style="mask-type:luminance" maskUnits="userSpaceOnUse" x="33" y="23" width="10" height="10">
<path d="M41 30.3034L36.9987 32.4039C37.7152 32.0271 38.2828 31.3663 38.5469 30.4946C39.1033 28.6613 38.1058 26.5889 36.3158 25.8663C35.3773 25.4867 34.4107 25.5542 33.6211 25.9675L37.6225 23.8671C38.4121 23.4537 39.3815 23.3862 40.3172 23.7658C42.1043 24.4885 43.1047 26.5608 42.5483 28.3942C42.2842 29.2658 41.7166 29.9266 41 30.3034Z" fill="white"/>
</mask>
<g mask="url(#mask1_132_659)">
<path d="M41 30.3034L36.9987 32.4039C37.7152 32.0271 38.2828 31.3663 38.5469 30.4946C39.1033 28.6613 38.1058 26.5889 36.3158 25.8663C35.3773 25.4867 34.4107 25.5542 33.6211 25.9675L37.6225 23.8671C38.4121 23.4537 39.3815 23.3862 40.3172 23.7658C42.1043 24.4885 43.1047 26.5608 42.5483 28.3942C42.2842 29.2658 41.7166 29.9266 41 30.3034Z" fill="#B22200"/>
</g>
<path d="M28.3018 12.6393L32.3031 10.5388C31.6653 10.8734 31.1764 11.4639 30.9516 12.2034L26.9502 14.3039C27.175 13.5644 27.6639 12.9739 28.3018 12.6393Z" fill="#B22200"/>
<mask id="mask2_132_659" style="mask-type:luminance" maskUnits="userSpaceOnUse" x="26" y="10" width="7" height="5">
<path d="M28.3018 12.6393L32.3031 10.5388C31.6653 10.8734 31.1764 11.4639 30.9516 12.2034L26.9502 14.3039C27.175 13.5644 27.6639 12.9739 28.3018 12.6393Z" fill="white"/>
</mask>
<g mask="url(#mask2_132_659)">
<path d="M30.9516 12.2034L26.9502 14.3039C27.175 13.5644 27.6639 12.9739 28.3018 12.6393L32.3031 10.5388C31.6653 10.8734 31.1764 11.4639 30.9516 12.2034Z" fill="#B22200"/>
</g>
<path d="M85.0997 67.2428L81.0983 69.346L30.5586 48.9122L34.56 46.8118L85.0997 67.2428Z" fill="#B22200"/>
<path d="M34.5594 46.8118L30.5608 48.9123C30.0382 48.7014 29.5745 48.3443 29.2148 47.8888L33.2134 45.7883C33.5731 46.2439 34.0367 46.601 34.5594 46.8118Z" fill="#B22200"/>
<mask id="mask3_132_659" style="mask-type:luminance" maskUnits="userSpaceOnUse" x="29" y="45" width="6" height="4">
<path d="M34.5594 46.8118L30.5608 48.9123C30.0382 48.7014 29.5745 48.3443 29.2148 47.8888L33.2134 45.7883C33.5731 46.2439 34.0367 46.601 34.5594 46.8118Z" fill="white"/>
</mask>
<g mask="url(#mask3_132_659)">
<path d="M34.5594 46.8118L30.5608 48.9123C30.0382 48.7014 29.5745 48.3443 29.2148 47.8888L33.2134 45.7883C33.5731 46.2439 34.0367 46.601 34.5594 46.8118Z" fill="#B22200"/>
</g>
<path d="M24.7357 32.6963L20.7344 34.7968L26.95 14.304L30.9513 12.2035L24.7357 32.6963Z" fill="#B22200"/>
<path d="M33.2133 45.7883L29.212 47.8888L21.3301 37.8026L25.3286 35.7021L33.2133 45.7883Z" fill="#B22200"/>
<path d="M25.329 35.7022L21.3304 37.8026C20.6588 36.9394 20.4312 35.8006 20.7347 34.7967L24.7361 32.6963C24.4326 33.7001 24.6574 34.8389 25.329 35.7022Z" fill="#B22200"/>
<mask id="mask4_132_659" style="mask-type:luminance" maskUnits="userSpaceOnUse" x="20" y="32" width="6" height="6">
<path d="M25.329 35.7022L21.3304 37.8026C20.6588 36.9394 20.4312 35.8006 20.7347 34.7967L24.7361 32.6963C24.4326 33.7001 24.6574 34.8389 25.329 35.7022Z" fill="white"/>
</mask>
<g mask="url(#mask4_132_659)">
<path d="M25.329 35.7022L21.3304 37.8026C20.6588 36.9394 20.4312 35.8006 20.7347 34.7967L24.7361 32.6963C24.4326 33.7001 24.6574 34.8389 25.329 35.7022Z" fill="#B22200"/>
</g>
<mask id="mask5_132_659" style="mask-type:luminance" maskUnits="userSpaceOnUse" x="81" y="67" width="7" height="3">
<path d="M87.4453 67.1556L83.444 69.2561C82.7583 69.616 81.9154 69.6751 81.0977 69.3461L85.099 67.2456C85.9139 67.5746 86.7569 67.5156 87.4453 67.1556Z" fill="white"/>
</mask>
<g mask="url(#mask5_132_659)">
<path d="M87.4453 67.1556L83.444 69.2561C82.7583 69.616 81.9154 69.6751 81.0977 69.3461L85.099 67.2456C85.9139 67.5746 86.7569 67.5156 87.4453 67.1556Z" fill="url(#paint0_linear_132_659)"/>
</g>
<mask id="mask6_132_659" style="mask-type:luminance" maskUnits="userSpaceOnUse" x="33" y="23" width="10" height="10">
<path d="M41 30.3034L36.9987 32.4039C37.7152 32.0271 38.2828 31.3663 38.5469 30.4946C39.1033 28.6613 38.1058 26.5889 36.3158 25.8663C35.3773 25.4867 34.4107 25.5542 33.6211 25.9675L37.6225 23.8671C38.4121 23.4537 39.3815 23.3862 40.3172 23.7658C42.1043 24.4885 43.1047 26.5608 42.5483 28.3942C42.2842 29.2658 41.7166 29.9266 41 30.3034Z" fill="white"/>
</mask>
<g mask="url(#mask6_132_659)">
<path d="M41 30.3034L36.9987 32.4039C37.7152 32.0271 38.2828 31.3663 38.5469 30.4946C39.1033 28.6613 38.1058 26.5889 36.3158 25.8663C35.3773 25.4867 34.4107 25.5542 33.6211 25.9675L37.6225 23.8671C38.4121 23.4537 39.3815 23.3862 40.3172 23.7658C42.1043 24.4885 43.1047 26.5608 42.5483 28.3942C42.2842 29.2658 41.7166 29.9266 41 30.3034Z" fill="url(#paint1_linear_132_659)"/>
</g>
<mask id="mask7_132_659" style="mask-type:luminance" maskUnits="userSpaceOnUse" x="26" y="10" width="7" height="5">
<path d="M28.3018 12.6393L32.3031 10.5388C31.6653 10.8734 31.1764 11.4639 30.9516 12.2034L26.9502 14.3039C27.175 13.5644 27.6639 12.9739 28.3018 12.6393Z" fill="white"/>
</mask>
<g mask="url(#mask7_132_659)">
<path d="M30.9516 12.2034L26.9502 14.3039C27.175 13.5644 27.6639 12.9739 28.3018 12.6393L32.3031 10.5388C31.6653 10.8734 31.1764 11.4639 30.9516 12.2034Z" fill="url(#paint2_linear_132_659)"/>
</g>
<path d="M85.0997 67.2428L81.0983 69.346L30.5586 48.9122L34.56 46.8118L85.0997 67.2428Z" fill="url(#paint3_linear_132_659)"/>
<mask id="mask8_132_659" style="mask-type:luminance" maskUnits="userSpaceOnUse" x="29" y="45" width="6" height="4">
<path d="M34.5594 46.8118L30.5608 48.9123C30.0382 48.7014 29.5745 48.3443 29.2148 47.8888L33.2134 45.7883C33.5731 46.2439 34.0367 46.601 34.5594 46.8118Z" fill="white"/>
</mask>
<g mask="url(#mask8_132_659)">
<path d="M34.5594 46.8118L30.5608 48.9123C30.0382 48.7014 29.5745 48.3443 29.2148 47.8888L33.2134 45.7883C33.5731 46.2439 34.0367 46.601 34.5594 46.8118Z" fill="url(#paint4_linear_132_659)"/>
</g>
<path d="M24.7357 32.6963L20.7344 34.7968L26.95 14.304L30.9513 12.2035L24.7357 32.6963Z" fill="url(#paint5_linear_132_659)"/>
<path d="M33.2133 45.7883L29.212 47.8888L21.3301 37.8026L25.3286 35.7021L33.2133 45.7883Z" fill="url(#paint6_linear_132_659)"/>
<mask id="mask9_132_659" style="mask-type:luminance" maskUnits="userSpaceOnUse" x="20" y="32" width="6" height="6">
<path d="M25.329 35.7022L21.3304 37.8026C20.6588 36.9394 20.4312 35.8006 20.7347 34.7967L24.7361 32.6963C24.4326 33.7001 24.6574 34.8389 25.329 35.7022Z" fill="white"/>
</mask>
<g mask="url(#mask9_132_659)">
<path d="M25.329 35.7022L21.3304 37.8026C20.6588 36.9394 20.4312 35.8006 20.7347 34.7967L24.7361 32.6963C24.4326 33.7001 24.6574 34.8389 25.329 35.7022Z" fill="url(#paint7_linear_132_659)"/>
</g>
<path d="M96.7949 28.6782C98.3517 29.308 99.2199 31.1104 98.7366 32.7076L88.7922 65.4939C88.3089 67.091 86.6538 67.8727 85.0999 67.2457L34.5602 46.8119C34.0376 46.601 33.5739 46.2439 33.2143 45.7884L25.3324 35.7022C24.6608 34.839 24.4332 33.7002 24.7395 32.6963L30.9551 12.2035C31.2585 11.1997 32.0537 10.4686 33.0428 10.283L44.6536 8.07849C45.1818 7.97727 45.7354 8.03631 46.258 8.2472L96.7978 28.681L96.7949 28.6782ZM38.3031 30.4047C40.0902 31.1273 41.9897 30.2275 42.5461 28.3914C43.1025 26.5552 42.1049 24.4857 40.315 23.7631C38.5279 23.0404 36.6283 23.9402 36.072 25.7763C35.5156 27.6125 36.5131 29.682 38.3031 30.4047Z" fill="url(#paint8_linear_132_659)"/>
<path d="M97.3262 32.1368L96.3259 32.6626C96.5675 31.8641 96.1348 30.9643 95.3564 30.6494L96.3568 30.1235C97.1351 30.4385 97.5679 31.3383 97.3262 32.1368Z" fill="#FF4B18"/>
<mask id="mask10_132_659" style="mask-type:luminance" maskUnits="userSpaceOnUse" x="95" y="30" width="3" height="3">
<path d="M97.3262 32.1368L96.3259 32.6626C96.5675 31.8641 96.1348 30.9643 95.3564 30.6494L96.3568 30.1235C97.1351 30.4385 97.5679 31.3383 97.3262 32.1368Z" fill="white"/>
</mask>
<g mask="url(#mask10_132_659)">
<path d="M97.3262 32.1368L96.3259 32.6626C96.5675 31.8641 96.1348 30.9643 95.3564 30.6494L96.3568 30.1235C97.1351 30.4385 97.5679 31.3383 97.3262 32.1368Z" fill="#FF4B18"/>
</g>
<path d="M87.3851 64.9231L86.3848 65.449L96.3292 32.6627L97.3267 32.1368L87.3851 64.9231Z" fill="#FF4B18"/>
<path d="M86.7103 65.7526L85.71 66.2784C86.0219 66.1153 86.2691 65.8257 86.3844 65.4489L87.3847 64.9231C87.2695 65.2999 87.0222 65.5895 86.7103 65.7526Z" fill="#FF4B18"/>
<mask id="mask11_132_659" style="mask-type:luminance" maskUnits="userSpaceOnUse" x="85" y="64" width="3" height="3">
<path d="M86.7103 65.7526L85.71 66.2784C86.0219 66.1153 86.2691 65.8257 86.3844 65.4489L87.3847 64.9231C87.2695 65.2999 87.0222 65.5895 86.7103 65.7526Z" fill="white"/>
</mask>
<g mask="url(#mask11_132_659)">
<path d="M86.7103 65.7526L85.71 66.2784C86.0219 66.1153 86.2691 65.8257 86.3844 65.4489L87.3847 64.9231C87.2695 65.2999 87.0222 65.5895 86.7103 65.7526Z" fill="#FF4B18"/>
</g>
<path d="M96.3565 30.1235L95.3561 30.6493L44.8164 10.2155L45.8167 9.6897L96.3565 30.1235Z" fill="#FF4B18"/>
<path d="M45.8168 9.68973L44.8165 10.2156C44.5523 10.1087 44.2741 10.0806 44.0156 10.1284L45.016 9.60256C45.2773 9.55476 45.5527 9.58288 45.8168 9.68973Z" fill="#FF4B18"/>
<mask id="mask12_132_659" style="mask-type:luminance" maskUnits="userSpaceOnUse" x="44" y="9" width="2" height="2">
<path d="M45.8168 9.68973L44.8165 10.2156C44.5523 10.1087 44.2741 10.0806 44.0156 10.1284L45.016 9.60256C45.2773 9.55476 45.5527 9.58288 45.8168 9.68973Z" fill="white"/>
</mask>
<g mask="url(#mask12_132_659)">
<path d="M45.8168 9.68973L44.8165 10.2156C44.5523 10.1087 44.2741 10.0806 44.0156 10.1284L45.016 9.60256C45.2773 9.55476 45.5527 9.58288 45.8168 9.68973Z" fill="#FF4B18"/>
</g>
<path d="M45.0163 9.60254L44.016 10.1284L32.4053 12.3329L33.4056 11.8098L45.0163 9.60254Z" fill="#FF4B18"/>
<path d="M32.0371 12.4622L33.0375 11.9363C33.1527 11.8773 33.2735 11.8323 33.4056 11.8098L32.4052 12.3356C32.276 12.3609 32.1523 12.4031 32.0371 12.4622Z" fill="#FF4B18"/>
<mask id="mask13_132_659" style="mask-type:luminance" maskUnits="userSpaceOnUse" x="32" y="11" width="2" height="2">
<path d="M32.0371 12.4622L33.0375 11.9363C33.1527 11.8773 33.2735 11.8323 33.4056 11.8098L32.4052 12.3356C32.276 12.3609 32.1523 12.4031 32.0371 12.4622Z" fill="white"/>
</mask>
<g mask="url(#mask13_132_659)">
<path d="M33.4056 11.8098L32.4052 12.3356C32.276 12.3609 32.1523 12.4031 32.0371 12.4622L33.0375 11.9363C33.1527 11.8773 33.2735 11.8323 33.4056 11.8098Z" fill="#FF4B18"/>
</g>
<path d="M41.0009 30.3035L40.0006 30.8293C40.7171 30.4525 41.2847 29.7918 41.5489 28.9201C42.1053 27.0868 41.1077 25.0144 39.3178 24.2918C38.3793 23.9122 37.4126 23.9796 36.623 24.3958L37.6234 23.87C38.413 23.4566 39.3824 23.3892 40.3181 23.7659C42.1053 24.4886 43.1056 26.5609 42.5492 28.3943C42.2851 29.2659 41.7175 29.9267 41.0009 30.3035Z" fill="#FF4B18"/>
<mask id="mask14_132_659" style="mask-type:luminance" maskUnits="userSpaceOnUse" x="36" y="23" width="7" height="8">
<path d="M41.0009 30.3035L40.0006 30.8293C40.7171 30.4525 41.2847 29.7918 41.5489 28.9201C42.1053 27.0868 41.1077 25.0144 39.3178 24.2918C38.3793 23.9122 37.4126 23.9796 36.623 24.3958L37.6234 23.87C38.413 23.4566 39.3824 23.3892 40.3181 23.7659C42.1053 24.4886 43.1056 26.5609 42.5492 28.3943C42.2851 29.2659 41.7175 29.9267 41.0009 30.3035Z" fill="white"/>
</mask>
<g mask="url(#mask14_132_659)">
<path d="M41.0009 30.3035L40.0006 30.8293C40.7171 30.4525 41.2847 29.7918 41.5489 28.9201C42.1053 27.0868 41.1077 25.0144 39.3178 24.2918C38.3793 23.9122 37.4126 23.9796 36.623 24.3958L37.6234 23.87C38.413 23.4566 39.3824 23.3892 40.3181 23.7659C42.1053 24.4886 43.1056 26.5609 42.5492 28.3943C42.2851 29.2659 41.7175 29.9267 41.0009 30.3035Z" fill="#FF4B18"/>
</g>
<path d="M41.7342 31.7009L40.7338 32.2268C39.6014 32.8229 38.2105 32.9213 36.8673 32.3758C34.3047 31.341 32.8716 28.3605 33.6668 25.7314C34.0461 24.4829 34.861 23.5325 35.8895 22.9926L36.8898 22.4668C35.8614 23.0067 35.0465 23.9543 34.6671 25.2055C33.8691 27.8346 35.305 30.8124 37.8677 31.85C39.2108 32.3927 40.6018 32.2943 41.7342 31.7009Z" fill="#FF4B18"/>
<mask id="mask15_132_659" style="mask-type:luminance" maskUnits="userSpaceOnUse" x="33" y="22" width="9" height="11">
<path d="M41.7342 31.7009L40.7338 32.2268C39.6014 32.8229 38.2105 32.9213 36.8673 32.3758C34.3047 31.341 32.8716 28.3605 33.6668 25.7314C34.0461 24.4829 34.861 23.5325 35.8895 22.9926L36.8898 22.4668C35.8614 23.0067 35.0465 23.9543 34.6671 25.2055C33.8691 27.8346 35.305 30.8124 37.8677 31.85C39.2108 32.3927 40.6018 32.2943 41.7342 31.7009Z" fill="white"/>
</mask>
<g mask="url(#mask15_132_659)">
<path d="M41.7342 31.7009L40.7338 32.2268C39.6014 32.8229 38.2105 32.9213 36.8673 32.3758C34.3047 31.341 32.8716 28.3605 33.6668 25.7314C34.0461 24.4829 34.861 23.5325 35.8895 22.9926L36.8898 22.4668C35.8614 23.0067 35.0465 23.9543 34.6671 25.2055C33.8691 27.8346 35.305 30.8124 37.8677 31.85C39.2108 32.3927 40.6018 32.2943 41.7342 31.7009Z" fill="#FF4B18"/>
</g>
<mask id="mask16_132_659" style="mask-type:luminance" maskUnits="userSpaceOnUse" x="95" y="30" width="3" height="3">
<path d="M97.3262 32.1368L96.3259 32.6626C96.5675 31.8641 96.1348 30.9643 95.3564 30.6494L96.3568 30.1235C97.1351 30.4385 97.5679 31.3383 97.3262 32.1368Z" fill="white"/>
</mask>
<g mask="url(#mask16_132_659)">
<path d="M97.3262 32.1368L96.3259 32.6626C96.5675 31.8641 96.1348 30.9643 95.3564 30.6494L96.3568 30.1235C97.1351 30.4385 97.5679 31.3383 97.3262 32.1368Z" fill="url(#paint9_linear_132_659)"/>
</g>
<path d="M87.3851 64.9231L86.3848 65.449L96.3292 32.6627L97.3267 32.1368L87.3851 64.9231Z" fill="url(#paint10_linear_132_659)"/>
<mask id="mask17_132_659" style="mask-type:luminance" maskUnits="userSpaceOnUse" x="85" y="64" width="3" height="3">
<path d="M86.7103 65.7526L85.71 66.2784C86.0219 66.1153 86.2691 65.8257 86.3844 65.4489L87.3847 64.9231C87.2695 65.2999 87.0222 65.5895 86.7103 65.7526Z" fill="white"/>
</mask>
<g mask="url(#mask17_132_659)">
<path d="M86.7103 65.7526L85.71 66.2784C86.0219 66.1153 86.2691 65.8257 86.3844 65.4489L87.3847 64.9231C87.2695 65.2999 87.0222 65.5895 86.7103 65.7526Z" fill="url(#paint11_linear_132_659)"/>
</g>
<path d="M96.3565 30.1235L95.3561 30.6493L44.8164 10.2155L45.8167 9.6897L96.3565 30.1235Z" fill="url(#paint12_linear_132_659)"/>
<mask id="mask18_132_659" style="mask-type:luminance" maskUnits="userSpaceOnUse" x="44" y="9" width="2" height="2">
<path d="M45.8168 9.68973L44.8165 10.2156C44.5523 10.1087 44.2741 10.0806 44.0156 10.1284L45.016 9.60256C45.2773 9.55476 45.5527 9.58288 45.8168 9.68973Z" fill="white"/>
</mask>
<g mask="url(#mask18_132_659)">
<path d="M45.8168 9.68973L44.8165 10.2156C44.5523 10.1087 44.2741 10.0806 44.0156 10.1284L45.016 9.60256C45.2773 9.55476 45.5527 9.58288 45.8168 9.68973Z" fill="url(#paint13_linear_132_659)"/>
</g>
<path d="M45.0163 9.60254L44.016 10.1284L32.4053 12.3329L33.4056 11.8098L45.0163 9.60254Z" fill="url(#paint14_linear_132_659)"/>
<mask id="mask19_132_659" style="mask-type:luminance" maskUnits="userSpaceOnUse" x="32" y="11" width="2" height="2">
<path d="M32.0371 12.4622L33.0375 11.9363C33.1527 11.8773 33.2735 11.8323 33.4056 11.8098L32.4052 12.3356C32.276 12.3609 32.1523 12.4031 32.0371 12.4622Z" fill="white"/>
</mask>
<g mask="url(#mask19_132_659)">
<path d="M33.4056 11.8098L32.4052 12.3356C32.276 12.3609 32.1523 12.4031 32.0371 12.4622L33.0375 11.9363C33.1527 11.8773 33.2735 11.8323 33.4056 11.8098Z" fill="url(#paint15_linear_132_659)"/>
</g>
<mask id="mask20_132_659" style="mask-type:luminance" maskUnits="userSpaceOnUse" x="36" y="23" width="7" height="8">
<path d="M41.0009 30.3035L40.0006 30.8293C40.7171 30.4525 41.2847 29.7918 41.5489 28.9201C42.1053 27.0868 41.1077 25.0144 39.3178 24.2918C38.3793 23.9122 37.4126 23.9796 36.623 24.3958L37.6234 23.87C38.413 23.4566 39.3824 23.3892 40.3181 23.7659C42.1053 24.4886 43.1056 26.5609 42.5492 28.3943C42.2851 29.2659 41.7175 29.9267 41.0009 30.3035Z" fill="white"/>
</mask>
<g mask="url(#mask20_132_659)">
<path d="M41.0009 30.3035L40.0006 30.8293C40.7171 30.4525 41.2847 29.7918 41.5489 28.9201C42.1053 27.0868 41.1077 25.0144 39.3178 24.2918C38.3793 23.9122 37.4126 23.9796 36.623 24.3958L37.6234 23.87C38.413 23.4566 39.3824 23.3892 40.3181 23.7659C42.1053 24.4886 43.1056 26.5609 42.5492 28.3943C42.2851 29.2659 41.7175 29.9267 41.0009 30.3035Z" fill="url(#paint16_linear_132_659)"/>
</g>
<mask id="mask21_132_659" style="mask-type:luminance" maskUnits="userSpaceOnUse" x="33" y="22" width="9" height="11">
<path d="M41.7342 31.7009L40.7338 32.2268C39.6014 32.8229 38.2105 32.9213 36.8673 32.3758C34.3047 31.341 32.8716 28.3605 33.6668 25.7314C34.0461 24.4829 34.861 23.5325 35.8895 22.9926L36.8898 22.4668C35.8614 23.0067 35.0465 23.9543 34.6671 25.2055C33.8691 27.8346 35.305 30.8124 37.8677 31.85C39.2108 32.3927 40.6018 32.2943 41.7342 31.7009Z" fill="white"/>
</mask>
<g mask="url(#mask21_132_659)">
<path d="M41.7342 31.7009L40.7338 32.2268C39.6014 32.8229 38.2105 32.9213 36.8673 32.3758C34.3047 31.341 32.8716 28.3605 33.6668 25.7314C34.0461 24.4829 34.861 23.5325 35.8895 22.9926L36.8898 22.4668C35.8614 23.0067 35.0465 23.9543 34.6671 25.2055C33.8691 27.8346 35.305 30.8124 37.8677 31.85C39.2108 32.3927 40.6018 32.2943 41.7342 31.7009Z" fill="url(#paint17_linear_132_659)"/>
</g>
<path d="M40.7558 22.3205C43.3185 23.3553 44.7544 26.3359 43.9564 28.965C43.1583 31.5941 40.4271 32.8875 37.8644 31.8527C35.3017 30.818 33.8687 27.8374 34.6639 25.2083C35.4619 22.5792 38.1932 21.2858 40.7558 22.3205ZM38.3028 30.4075C40.0899 31.1301 41.9894 30.2303 42.5458 28.3942C43.1021 26.558 42.1046 24.4885 40.3147 23.7658C38.5276 23.0432 36.628 23.943 36.0717 25.7791C35.5153 27.6125 36.5128 29.6848 38.3028 30.4075Z" fill="#FF4B18"/>
<path d="M96.7948 28.6782C98.3515 29.308 99.2198 31.1105 98.7365 32.7076L88.7921 65.4939C88.3088 67.091 86.6537 67.8727 85.0998 67.2457L34.5601 46.8119C34.0375 46.601 33.5738 46.2439 33.2142 45.7827L25.3294 35.6994C24.6579 34.8362 24.4303 33.6974 24.7337 32.6935L30.9493 12.1951C31.2528 11.194 32.0452 10.4658 33.0371 10.2802L44.6478 8.07568C45.1761 7.97446 45.7297 8.03351 46.2523 8.2444L96.792 28.6782H96.7948ZM87.3843 64.9231L97.3287 32.1368C97.5704 31.3382 97.1376 30.4384 96.3593 30.1235L45.8168 9.68969C45.5526 9.58284 45.2773 9.55472 45.0159 9.60253L33.4052 11.807C32.9107 11.8998 32.5117 12.271 32.3627 12.7659L26.1471 33.2643C25.9954 33.7677 26.105 34.3328 26.445 34.7659L34.3269 44.852C34.5039 45.0826 34.7343 45.2597 34.9985 45.3666L85.5382 65.8004C86.3165 66.1153 87.1427 65.7188 87.3843 64.9259" fill="#FF4B18"/>
<path d="M40.7558 22.3205C43.3185 23.3553 44.7544 26.3359 43.9564 28.965C43.1583 31.5941 40.4271 32.8875 37.8644 31.8527C35.3017 30.818 33.8687 27.8374 34.6639 25.2083C35.4619 22.5792 38.1932 21.2858 40.7558 22.3205ZM38.3028 30.4075C40.0899 31.1301 41.9894 30.2303 42.5458 28.3942C43.1021 26.558 42.1046 24.4885 40.3147 23.7658C38.5276 23.0432 36.628 23.943 36.0717 25.7791C35.5153 27.6125 36.5128 29.6848 38.3028 30.4075Z" fill="url(#paint18_linear_132_659)"/>
<path d="M96.7948 28.6782C98.3515 29.308 99.2198 31.1105 98.7365 32.7076L88.7921 65.4939C88.3088 67.091 86.6537 67.8727 85.0998 67.2457L34.5601 46.8119C34.0375 46.601 33.5738 46.2439 33.2142 45.7827L25.3294 35.6994C24.6579 34.8362 24.4303 33.6974 24.7337 32.6935L30.9493 12.1951C31.2528 11.194 32.0452 10.4658 33.0371 10.2802L44.6478 8.07568C45.1761 7.97446 45.7297 8.03351 46.2523 8.2444L96.792 28.6782H96.7948ZM87.3843 64.9231L97.3287 32.1368C97.5704 31.3382 97.1376 30.4384 96.3593 30.1235L45.8168 9.68969C45.5526 9.58284 45.2773 9.55472 45.0159 9.60253L33.4052 11.807C32.9107 11.8998 32.5117 12.271 32.3627 12.7659L26.1471 33.2643C25.9954 33.7677 26.105 34.3328 26.445 34.7659L34.3269 44.852C34.5039 45.0826 34.7343 45.2597 34.9985 45.3666L85.5382 65.8004C86.3165 66.1153 87.1427 65.7188 87.3843 64.9259" fill="url(#paint19_linear_132_659)"/>
<path d="M36.9596 25.9732C36.0407 25.3096 14.3507 9.72626 4.63395 12.5072C2.73442 13.0499 1.39127 14.2505 0.643821 16.0783C-0.303131 18.3896 -1.14292 23.0148 0.000731468 25C4.02177 31.9706 20.9597 31.7797 21.6257 31.8697L21.9517 30.7983C21.7943 30.7759 4.74847 31.001 1 24.5C0.0249481 22.8073 0.857377 18.5021 1.67507 16.5C2.29607 14.9844 3.36385 14.0284 4.94023 13.5785C14.1456 10.9522 36.0885 26.7183 36.3077 26.8758C36.5578 27.0558 36.9062 26.9995 37.086 26.7493C37.2659 26.499 37.2097 26.1503 36.9596 25.9704V25.9732Z" fill="#0C0918"/>
<path style="mix-blend-mode:multiply" opacity="0.5" d="M36.6333 26.5834C35.796 25.9789 13.8166 10.6739 4.97084 13.2074C3.23991 13.7023 2.01758 14.7961 1.33757 16.4579C0.477729 18.5612 -0.0424906 23.692 1 25.5001C4.33822 31.2897 18.8829 30.849 21.7828 31.3439L21.9485 30.7984C21.7912 30.7759 5.24847 31.5011 1.5 25.0001C0.524948 23.3073 0.854262 18.5021 1.67196 16.5001C2.29296 14.9845 3.36074 14.0284 4.93712 13.5785C14.1425 10.9523 36.0854 26.7184 36.3046 26.8758C36.4647 26.9911 36.6642 26.9996 36.8356 26.9321C36.8188 26.7971 36.7513 26.6678 36.6333 26.5806V26.5834Z" fill="url(#paint20_linear_132_659)"/>
<path d="M57.7255 40.1448L55.2973 39.2359L52.9994 27.4238L52.9253 27.3961C52.826 27.7281 52.7169 28.0783 52.5978 28.4466C52.4841 28.817 52.3609 29.1963 52.2281 29.5845C52.1008 29.9748 51.9687 30.3696 51.8317 30.7688L49.4778 37.0575L47.6833 36.3858L52.188 24.3517L54.5997 25.2544L56.9141 36.9975L56.9717 37.0191C57.0655 36.7351 57.1719 36.409 57.291 36.0406C57.4101 35.6723 57.5333 35.293 57.6607 34.9027C57.7955 34.509 57.928 34.13 58.0581 33.7657L60.4275 27.4359L62.2301 28.1106L57.7255 40.1448ZM67.7018 43.8791L60.8863 41.328L65.391 29.2938L72.2065 31.845L71.5841 33.5077L66.7441 31.696L65.5209 34.9638L70.0563 36.6615L69.437 38.316L64.9016 36.6183L63.4873 40.3965L68.3273 42.2082L67.7018 43.8791ZM89.0395 38.1459L81.3905 49.0031L79.2339 48.1958L79.9245 40.2334C79.9409 40.0393 79.964 39.8103 79.9941 39.5462C80.0241 39.2822 80.0562 39.0126 80.0903 38.7376C80.1299 38.4646 80.1668 38.2157 80.2009 37.9907C80.2426 37.7623 80.2768 37.5874 80.3035 37.466C80.2494 37.5772 80.1641 37.7298 80.0476 37.9239C79.9312 38.1181 79.7982 38.3311 79.6489 38.563C79.5071 38.7914 79.3597 39.0178 79.2069 39.2422C79.0562 39.461 78.9212 39.6545 78.802 39.8226L74.1305 46.2855L71.9821 45.4813L73.3506 32.2733L75.3344 33.0158L74.4306 40.7202C74.4013 40.9657 74.3647 41.2304 74.321 41.5144C74.2848 41.7949 74.2422 42.0761 74.1929 42.358C74.1492 42.6419 74.1021 42.9183 74.0515 43.1872C74.0029 43.4505 73.9544 43.6889 73.9058 43.9022C74.0113 43.7039 74.1333 43.4868 74.2717 43.2508C74.4121 43.0093 74.5563 42.7661 74.7043 42.5212C74.8598 42.2729 75.0112 42.0355 75.1586 41.8091C75.3113 41.5848 75.4549 41.3851 75.5892 41.2102L80.2073 34.8399L82.1334 35.5609L81.4653 43.4379C81.4497 43.6635 81.4221 43.9128 81.3825 44.1858C81.3483 44.4608 81.3094 44.7403 81.2657 45.0242C81.222 45.3082 81.1758 45.5818 81.1273 45.8452C81.0788 46.1086 81.0313 46.3442 80.9847 46.552C81.1238 46.2975 81.2882 46.0087 81.478 45.6855C81.6678 45.3624 81.8678 45.0369 82.0782 44.709C82.2885 44.381 82.4886 44.0805 82.6784 43.8075L87.0475 37.4003L89.0395 38.1459Z" fill="white"/>
</g>
<defs>
<linearGradient id="paint0_linear_132_659" x1="34.3485" y1="9.58281" x2="65.9957" y2="77.3997" gradientUnits="userSpaceOnUse">
<stop stop-color="#FF4B18"/>
<stop offset="0.06" stop-color="#F04313"/>
<stop offset="0.2" stop-color="#CE3108"/>
<stop offset="0.33" stop-color="#B92602"/>
<stop offset="0.41" stop-color="#B22200"/>
<stop offset="0.79" stop-color="#831800"/>
<stop offset="1" stop-color="#701500"/>
</linearGradient>
<linearGradient id="paint1_linear_132_659" x1="34.3489" y1="9.58281" x2="65.9961" y2="77.3996" gradientUnits="userSpaceOnUse">
<stop stop-color="#FF4B18"/>
<stop offset="0.06" stop-color="#F04313"/>
<stop offset="0.2" stop-color="#CE3108"/>
<stop offset="0.33" stop-color="#B92602"/>
<stop offset="0.41" stop-color="#B22200"/>
<stop offset="0.79" stop-color="#831800"/>
<stop offset="1" stop-color="#701500"/>
</linearGradient>
<linearGradient id="paint2_linear_132_659" x1="34.3488" y1="9.58278" x2="65.9961" y2="77.3996" gradientUnits="userSpaceOnUse">
<stop stop-color="#FF4B18"/>
<stop offset="0.06" stop-color="#F04313"/>
<stop offset="0.2" stop-color="#CE3108"/>
<stop offset="0.33" stop-color="#B92602"/>
<stop offset="0.41" stop-color="#B22200"/>
<stop offset="0.79" stop-color="#831800"/>
<stop offset="1" stop-color="#701500"/>
</linearGradient>
<linearGradient id="paint3_linear_132_659" x1="34.3492" y1="9.58273" x2="65.9965" y2="77.3996" gradientUnits="userSpaceOnUse">
<stop stop-color="#FF4B18"/>
<stop offset="0.06" stop-color="#F04313"/>
<stop offset="0.2" stop-color="#CE3108"/>
<stop offset="0.33" stop-color="#B92602"/>
<stop offset="0.41" stop-color="#B22200"/>
<stop offset="0.79" stop-color="#831800"/>
<stop offset="1" stop-color="#701500"/>
</linearGradient>
<linearGradient id="paint4_linear_132_659" x1="34.3486" y1="9.58281" x2="65.9959" y2="77.3996" gradientUnits="userSpaceOnUse">
<stop stop-color="#FF4B18"/>
<stop offset="0.06" stop-color="#F04313"/>
<stop offset="0.2" stop-color="#CE3108"/>
<stop offset="0.33" stop-color="#B92602"/>
<stop offset="0.41" stop-color="#B22200"/>
<stop offset="0.79" stop-color="#831800"/>
<stop offset="1" stop-color="#701500"/>
</linearGradient>
<linearGradient id="paint5_linear_132_659" x1="34.3486" y1="9.58284" x2="65.9958" y2="77.3997" gradientUnits="userSpaceOnUse">
<stop stop-color="#FF4B18"/>
<stop offset="0.06" stop-color="#F04313"/>
<stop offset="0.2" stop-color="#CE3108"/>
<stop offset="0.33" stop-color="#B92602"/>
<stop offset="0.41" stop-color="#B22200"/>
<stop offset="0.79" stop-color="#831800"/>
<stop offset="1" stop-color="#701500"/>
</linearGradient>
<linearGradient id="paint6_linear_132_659" x1="34.3486" y1="9.58277" x2="65.9958" y2="77.3996" gradientUnits="userSpaceOnUse">
<stop stop-color="#FF4B18"/>
<stop offset="0.06" stop-color="#F04313"/>
<stop offset="0.2" stop-color="#CE3108"/>
<stop offset="0.33" stop-color="#B92602"/>
<stop offset="0.41" stop-color="#B22200"/>
<stop offset="0.79" stop-color="#831800"/>
<stop offset="1" stop-color="#701500"/>
</linearGradient>
<linearGradient id="paint7_linear_132_659" x1="34.3489" y1="9.58279" x2="65.9962" y2="77.3996" gradientUnits="userSpaceOnUse">
<stop stop-color="#FF4B18"/>
<stop offset="0.06" stop-color="#F04313"/>
<stop offset="0.2" stop-color="#CE3108"/>
<stop offset="0.33" stop-color="#B92602"/>
<stop offset="0.41" stop-color="#B22200"/>
<stop offset="0.79" stop-color="#831800"/>
<stop offset="1" stop-color="#701500"/>
</linearGradient>
<linearGradient id="paint8_linear_132_659" x1="47.9946" y1="3.21116" x2="79.5518" y2="70.8425" gradientUnits="userSpaceOnUse">
<stop stop-color="#F14414"/>
<stop offset="0.35" stop-color="#DE390E"/>
<stop offset="1" stop-color="#B22200"/>
</linearGradient>
<linearGradient id="paint9_linear_132_659" x1="55.1041" y1="58.0735" x2="66.5861" y2="15.2471" gradientUnits="userSpaceOnUse">
<stop stop-color="#D3340A"/>
<stop offset="0.1" stop-color="#CE3108"/>
<stop offset="0.64" stop-color="#B92602"/>
<stop offset="1" stop-color="#B22200"/>
</linearGradient>
<linearGradient id="paint10_linear_132_659" x1="55.1045" y1="58.0734" x2="66.5864" y2="15.2471" gradientUnits="userSpaceOnUse">
<stop stop-color="#D3340A"/>
<stop offset="0.1" stop-color="#CE3108"/>
<stop offset="0.64" stop-color="#B92602"/>
<stop offset="1" stop-color="#B22200"/>
</linearGradient>
<linearGradient id="paint11_linear_132_659" x1="55.1039" y1="58.0734" x2="66.5859" y2="15.247" gradientUnits="userSpaceOnUse">
<stop stop-color="#D3340A"/>
<stop offset="0.1" stop-color="#CE3108"/>
<stop offset="0.64" stop-color="#B92602"/>
<stop offset="1" stop-color="#B22200"/>
</linearGradient>
<linearGradient id="paint12_linear_132_659" x1="55.1036" y1="58.0734" x2="66.5856" y2="15.247" gradientUnits="userSpaceOnUse">
<stop stop-color="#D3340A"/>
<stop offset="0.1" stop-color="#CE3108"/>
<stop offset="0.64" stop-color="#B92602"/>
<stop offset="1" stop-color="#B22200"/>
</linearGradient>
<linearGradient id="paint13_linear_132_659" x1="55.1037" y1="58.0734" x2="66.5857" y2="15.2471" gradientUnits="userSpaceOnUse">
<stop stop-color="#D3340A"/>
<stop offset="0.1" stop-color="#CE3108"/>
<stop offset="0.64" stop-color="#B92602"/>
<stop offset="1" stop-color="#B22200"/>
</linearGradient>
<linearGradient id="paint14_linear_132_659" x1="55.104" y1="58.0734" x2="66.586" y2="15.247" gradientUnits="userSpaceOnUse">
<stop stop-color="#D3340A"/>
<stop offset="0.1" stop-color="#CE3108"/>
<stop offset="0.64" stop-color="#B92602"/>
<stop offset="1" stop-color="#B22200"/>
</linearGradient>
<linearGradient id="paint15_linear_132_659" x1="55.1039" y1="58.0734" x2="66.5859" y2="15.247" gradientUnits="userSpaceOnUse">
<stop stop-color="#D3340A"/>
<stop offset="0.1" stop-color="#CE3108"/>
<stop offset="0.64" stop-color="#B92602"/>
<stop offset="1" stop-color="#B22200"/>
</linearGradient>
<linearGradient id="paint16_linear_132_659" x1="55.1041" y1="58.0735" x2="66.586" y2="15.2471" gradientUnits="userSpaceOnUse">
<stop stop-color="#D3340A"/>
<stop offset="0.1" stop-color="#CE3108"/>
<stop offset="0.64" stop-color="#B92602"/>
<stop offset="1" stop-color="#B22200"/>
</linearGradient>
<linearGradient id="paint17_linear_132_659" x1="55.1039" y1="58.0734" x2="66.5859" y2="15.247" gradientUnits="userSpaceOnUse">
<stop stop-color="#D3340A"/>
<stop offset="0.1" stop-color="#CE3108"/>
<stop offset="0.64" stop-color="#B92602"/>
<stop offset="1" stop-color="#B22200"/>
</linearGradient>
<linearGradient id="paint18_linear_132_659" x1="47.9943" y1="3.21113" x2="79.5515" y2="70.8424" gradientUnits="userSpaceOnUse">
<stop stop-color="#FF6341"/>
<stop offset="0.02" stop-color="#FD613F"/>
<stop offset="0.42" stop-color="#E34721"/>
<stop offset="0.76" stop-color="#D3360F"/>
<stop offset="1" stop-color="#CE3109"/>
</linearGradient>
<linearGradient id="paint19_linear_132_659" x1="47.9945" y1="3.21117" x2="79.5517" y2="70.8425" gradientUnits="userSpaceOnUse">
<stop stop-color="#FF6341"/>
<stop offset="0.02" stop-color="#FD613F"/>
<stop offset="0.42" stop-color="#E34721"/>
<stop offset="0.76" stop-color="#D3360F"/>
<stop offset="1" stop-color="#CE3109"/>
</linearGradient>
<linearGradient id="paint20_linear_132_659" x1="12.2654" y1="9.71224" x2="23.2589" y2="33.2699" gradientUnits="userSpaceOnUse">
<stop stop-color="#727578"/>
<stop offset="1" stop-color="#2F3438"/>
</linearGradient>
<clipPath id="clip0_132_659">
<rect width="107" height="77" fill="white"/>
</clipPath>
</defs>
</svg>
