<svg width="50" height="51" viewBox="0 0 50 51" fill="none" xmlns="http://www.w3.org/2000/svg">
<rect y="0.432861" width="50" height="50" rx="25" fill="#FAFAFA"/>
<path d="M22.0832 15.7107C19.536 15.7107 17.4652 17.7815 17.4652 20.3287C17.4652 22.8274 19.4193 24.8496 21.9665 24.9371C22.0443 24.9274 22.1221 24.9274 22.1804 24.9371H22.2485C23.4437 24.8972 24.5766 24.3941 25.4075 23.5341C26.2385 22.6741 26.7024 21.5246 26.7013 20.3287C26.7013 17.7815 24.6304 15.7107 22.0832 15.7107ZM27.0221 27.5222C24.3096 25.7139 19.886 25.7139 17.154 27.5222C15.9193 28.3486 15.2388 29.4667 15.2388 30.6625C15.2388 31.8583 15.9193 32.9667 17.1443 33.7833C18.5054 34.6972 20.2943 35.1542 22.0832 35.1542C23.8721 35.1542 25.661 34.6972 27.0221 33.7833C28.2471 32.9569 28.9277 31.8486 28.9277 30.6431C28.9179 29.4472 28.2471 28.3389 27.0221 27.5222ZM32.7679 20.9004C32.9235 22.7865 31.5818 24.4393 29.7249 24.6629H29.6763C29.6179 24.6629 29.5596 24.6629 29.511 24.6824C28.5679 24.731 27.7027 24.4296 27.0513 23.8754C28.0527 22.981 28.6263 21.6393 28.5096 20.181C28.4429 19.4226 28.1854 18.6935 27.761 18.0615C28.2704 17.8137 28.8325 17.6935 29.3987 17.7114C29.965 17.7292 30.5184 17.8845 31.0112 18.164C31.504 18.4434 31.9215 18.8385 32.2275 19.3152C32.5336 19.792 32.719 20.336 32.7679 20.9004Z" fill="#222222"/>
<path d="M34.7104 29.8954C34.6326 30.8385 34.0298 31.6551 33.0187 32.2093C32.0465 32.744 30.8215 32.9968 29.6062 32.9676C30.3062 32.3357 30.7146 31.5482 30.7923 30.7121C30.8896 29.5065 30.316 28.3496 29.1687 27.426C28.5173 26.9107 27.759 26.5024 26.9326 26.201C29.0812 25.5787 31.784 25.9968 33.4465 27.3385C34.341 28.0579 34.7979 28.9621 34.7104 29.8954Z" fill="#222222"/>
</svg>
